# xmcd
#
# Track frame offsets: 
#        150
#        12999
#        24041
#        35918
#        46508
#        56907
#        68662
#        81018
#        92442
#        106369
#        117465
#        130348
#        144537
#        157256
#        171510
#        183049
#        195366
#        208779
#        219087
#
# Disc length: 3088 seconds
#
# Revision: 0
# Processed by: cddbd v1.5.2PL0 Copyright (c) Steve Scherf et al.
# Submitted via: ExactAudioCopy v0.95b4
#
DISCID=020c0e13
DTITLE=Ray Charles - Just Ray D1
DYEAR=1900
DGENRE=Blues
TTITLE0=Don't Put All Your Dreams In One Basket
TTITLE1=A Sentimental Blues
TTITLE2=CC Rider
TTITLE3=Hey Now
TTITLE4=I'm Sitting On Top Of The World
TTITLE5=How Long Blues
TTITLE6=Honey Honey
TTITLE7=She's On The Ball
TTITLE8=Late In The Evening Blues
TTITLE9=I'll Do Anything But Work
TTITLE10=Can Anyone Ask For More
TTITLE11=Blues Is My Middle Name
TTITLE12=You'll Never Miss The Water
TTITLE13=Walkin' And Talkin'
TTITLE14=If I Give You My Love
TTITLE15=I've Had My Fun
TTITLE16=Alone In The City
TTITLE17=Ain't That Fine
TTITLE18=Why Did You Go
EXTD=
EXTT0=
EXTT1=
EXTT2=
EXTT3=
EXTT4=
EXTT5=
EXTT6=
EXTT7=
EXTT8=
EXTT9=
EXTT10=
EXTT11=
EXTT12=
EXTT13=
EXTT14=
EXTT15=
EXTT16=
EXTT17=
EXTT18=
PLAYORDER=
